<svg xmlns="http://www.w3.org/2000/svg" xmlns:xlink="http://www.w3.org/1999/xlink" width="6912" zoomAndPan="magnify" viewBox="0 0 5184 2592.000001" height="3456" preserveAspectRatio="xMidYMid meet" version="1.0"><path fill="#fff1c0" d="M 2178.808594 1031.183594 C 2168.011719 1042.4375 2157.332031 1055.105469 2155.972656 1067.5625 C 2153.835938 1087.109375 2175.042969 1103.003906 2168.613281 1122.183594 C 2158.863281 1151.292969 2131.65625 1168.839844 2118.46875 1195.808594 C 2098.058594 1237.550781 2130.199219 1297.75 2167.683594 1319.648438 C 2208.15625 1343.296875 2260.765625 1333.308594 2305.242188 1340.4375 C 2323.324219 1343.335938 2349.96875 1349.6875 2356.902344 1369.546875 C 2360.535156 1379.925781 2354.628906 1390.980469 2345.96875 1396.167969 C 2344.839844 1396.847656 2343.65625 1397.433594 2342.433594 1397.898438 C 2323.515625 1405.089844 2306.777344 1389.445312 2285.082031 1400.714844 C 2259.601562 1413.949219 2235.597656 1460.953125 2236.996094 1499.527344 C 2238.0625 1528.671875 2249.289062 1553.625 2262.261719 1566.664062 C 2276.75 1581.214844 2306.699219 1586.695312 2325.070312 1595.089844 C 2344.726562 1604.066406 2366.902344 1617.765625 2389.003906 1623.832031 C 2404.464844 1628.085938 2419.902344 1628.589844 2434.429688 1621.148438 C 2465.640625 1605.136719 2484.304688 1574.027344 2503.199219 1542.449219 C 2515.902344 1521.25 2528.699219 1499.855469 2545.480469 1482.679688 C 2567.777344 1459.847656 2599.003906 1466.027344 2625.457031 1456.097656 C 2651.578125 1446.285156 2669.871094 1423.585938 2697.003906 1416.941406 C 2711.898438 1413.289062 2727.046875 1428.660156 2734.175781 1439.988281 C 2747.558594 1461.304688 2752.277344 1485.671875 2776.378906 1498.554688 C 2823.609375 1523.816406 2863.871094 1505.0625 2911.335938 1495.871094 C 2934.699219 1491.34375 2960.898438 1493.171875 2982.320312 1480.871094 C 3063.734375 1434.15625 3041.050781 1356.800781 3059.402344 1301.460938 C 3071.851562 1263.917969 3085.367188 1229.289062 3082.882812 1188.40625 C 3080.746094 1153.234375 3048.933594 1119.617188 3029.941406 1101.121094 C 2986.359375 1058.660156 2936.777344 1063.539062 2884.496094 1086.410156 C 2844.023438 1104.113281 2812.269531 1131.859375 2772.203125 1123.835938 C 2692.671875 1107.902344 2724.777344 993.605469 2657.289062 963.234375 C 2645.363281 957.871094 2619.378906 951.75 2585.292969 958.023438 C 2578.496094 959.289062 2572.027344 961.851562 2565.699219 964.515625 C 2545.558594 973.027344 2526.273438 985.363281 2510.753906 1000.8125 C 2489.742188 1021.703125 2483.664062 1048.363281 2473.449219 1075.199219 C 2469.679688 1085.109375 2464.570312 1099.816406 2451.578125 1098.300781 C 2414.855469 1094.066406 2400.113281 1062.527344 2381.878906 1035.148438 C 2358.066406 999.316406 2317.183594 965.195312 2271.605469 970.246094 C 2258.707031 971.664062 2246.726562 975.628906 2235.324219 981.789062 C 2220.023438 990.066406 2206.816406 1001.203125 2195.261719 1014.164062 C 2190.773438 1019.214844 2184.773438 1024.984375 2178.808594 1031.183594 Z M 2178.808594 1031.183594 " fill-opacity="1" fill-rule="evenodd"/><path fill="#f8d581" d="M 2169.175781 1108.851562 C 2171.992188 1108.113281 2174.847656 1107.433594 2177.761719 1106.832031 C 2213.417969 1099.332031 2252.511719 1102.539062 2286.714844 1088.527344 C 2327.515625 1071.796875 2339.890625 1019.195312 2314.371094 984.433594 C 2311.417969 980.429688 2308.195312 976.679688 2304.679688 973.199219 C 2336.527344 982.332031 2364.011719 1008.253906 2381.898438 1035.109375 C 2400.132812 1062.488281 2414.875 1094.027344 2451.597656 1098.261719 C 2453.328125 1098.457031 2454.902344 1098.378906 2456.375 1098.070312 C 2455.523438 1105.101562 2453.09375 1111.59375 2448.199219 1116.878906 C 2425.515625 1141.304688 2390.074219 1131.550781 2361.601562 1128.402344 C 2313.980469 1123.097656 2264.59375 1137.59375 2244.726562 1186.074219 C 2239.132812 1199.714844 2238.0625 1215.863281 2241.210938 1230.222656 C 2244.878906 1246.933594 2253.171875 1262.675781 2264.011719 1275.828125 C 2268.925781 1281.8125 2274.964844 1288.34375 2282.324219 1291.257812 C 2303.027344 1299.476562 2327.03125 1271.515625 2341.191406 1260.324219 C 2360.667969 1244.933594 2385.820312 1233.664062 2411.183594 1236.945312 C 2449.480469 1241.921875 2456.183594 1281.035156 2478.496094 1305.558594 C 2492.597656 1321.066406 2512.699219 1330.683594 2532.429688 1319.160156 C 2561.871094 1301.964844 2550.414062 1263.722656 2539.636719 1238.792969 C 2535.03125 1228.164062 2525.515625 1207.292969 2545.324219 1207.097656 C 2577.953125 1206.769531 2610.464844 1215.746094 2643.265625 1215.882812 C 2654.878906 1215.921875 2678.515625 1211.589844 2688.324219 1219.710938 C 2694.519531 1224.859375 2687.605469 1236.304688 2685.019531 1241.511719 C 2676.378906 1258.921875 2667.640625 1276.042969 2668.902344 1296.039062 C 2669.890625 1311.855469 2676.03125 1324.972656 2685.933594 1337.058594 C 2687.816406 1339.371094 2690.90625 1342.558594 2693.933594 1346.09375 C 2695.332031 1346.851562 2696.730469 1347.570312 2698.148438 1348.25 C 2707.257812 1352.605469 2717.105469 1354.683594 2727.183594 1354.371094 C 2742.800781 1353.886719 2763.597656 1348.96875 2773.738281 1336.007812 C 2781.097656 1326.585938 2781.71875 1314.769531 2782.28125 1303.265625 C 2783.429688 1279.367188 2781.484375 1254.707031 2776.046875 1231.390625 C 2773.136719 1218.835938 2769.347656 1206.167969 2764.472656 1194.214844 C 2763.054688 1190.71875 2758.683594 1183.433594 2763.832031 1180.984375 C 2777.582031 1174.433594 2804.578125 1186.714844 2816.503906 1192.621094 C 2853.128906 1210.773438 2869.289062 1242.132812 2891.410156 1274.292969 C 2905.566406 1294.890625 2924.601562 1316.109375 2952.238281 1313.292969 C 2970.375 1311.429688 2980.378906 1295.339844 2987.972656 1280.316406 C 3003.160156 1250.257812 2995.660156 1195.382812 3027.007812 1182.90625 C 3062.277344 1168.878906 3056.585938 1149.191406 3052.585938 1125.214844 C 3067.441406 1143.074219 3081.484375 1165.359375 3082.882812 1188.328125 C 3085.367188 1229.191406 3071.832031 1263.820312 3059.402344 1301.382812 C 3041.070312 1356.722656 3063.753906 1434.082031 2982.320312 1480.792969 C 2960.898438 1493.074219 2934.699219 1491.269531 2911.335938 1495.796875 C 2863.851562 1505.003906 2823.609375 1523.738281 2776.378906 1498.476562 C 2752.277344 1485.59375 2747.578125 1461.226562 2734.175781 1439.910156 C 2727.046875 1428.5625 2711.878906 1413.210938 2697.003906 1416.863281 C 2675.914062 1422.03125 2660.164062 1436.917969 2641.90625 1447.875 C 2637.109375 1436.996094 2609.355469 1446.515625 2611.609375 1459.90625 C 2588.652344 1464.683594 2564.007812 1463.65625 2545.5 1482.601562 C 2503.746094 1525.351562 2486.617188 1594.292969 2434.449219 1621.070312 C 2399.179688 1639.160156 2358.515625 1610.265625 2325.089844 1595.011719 C 2306.71875 1586.636719 2276.75 1581.160156 2262.28125 1566.585938 C 2256.921875 1561.183594 2251.851562 1553.757812 2247.675781 1544.839844 C 2247.871094 1544.820312 2248.066406 1544.800781 2248.28125 1544.78125 C 2274.964844 1541.789062 2301.261719 1524.960938 2328.3125 1527.234375 C 2360.046875 1529.917969 2386.828125 1553.214844 2420.332031 1547.695312 C 2438.976562 1544.625 2451.96875 1530.773438 2461.425781 1515.34375 C 2472.183594 1497.777344 2473.507812 1477.957031 2479.683594 1458.855469 C 2486.226562 1438.609375 2497.140625 1418.496094 2507.746094 1399.957031 C 2480.886719 1387.640625 2454.394531 1374.308594 2425.1875 1371.257812 C 2402.714844 1368.90625 2380.148438 1372.441406 2357.679688 1372.25 C 2357.503906 1371.335938 2357.25 1370.421875 2356.941406 1369.507812 C 2350.007812 1349.667969 2323.363281 1343.316406 2305.28125 1340.402344 C 2260.804688 1333.269531 2208.195312 1343.257812 2167.722656 1319.609375 C 2130.199219 1297.75 2098.078125 1237.53125 2118.488281 1195.789062 C 2131.675781 1168.820312 2158.863281 1151.273438 2168.632812 1122.164062 C 2170.167969 1117.578125 2170.109375 1113.167969 2169.175781 1108.851562 Z M 2169.175781 1108.851562 " fill-opacity="0.505" fill-rule="evenodd"/><path fill="#f8d581" d="M 2510.289062 1001.28125 C 2508.792969 1003.765625 2504.152344 1011.035156 2503.140625 1013.386719 C 2492.925781 1037.382812 2488.1875 1077.605469 2471.992188 1108.621094 C 2464.765625 1122.457031 2453.132812 1136.308594 2436.199219 1136.15625 C 2418.757812 1135.980469 2403.976562 1121.640625 2393.761719 1108.890625 C 2368.613281 1077.550781 2365.816406 1038.511719 2353.601562 1001.960938 C 2364.554688 1011.96875 2374.128906 1023.453125 2381.898438 1035.128906 C 2400.132812 1062.507812 2414.875 1094.046875 2451.597656 1098.28125 C 2464.609375 1099.796875 2469.699219 1085.089844 2473.46875 1075.179688 C 2483.625 1048.539062 2489.683594 1022.089844 2510.289062 1001.28125 Z M 2879.542969 1088.605469 C 2862.648438 1103.414062 2842.195312 1114.546875 2827.824219 1132.035156 C 2822.40625 1138.621094 2814.949219 1149.136719 2816.347656 1158.269531 C 2817.84375 1168.023438 2830.445312 1176.496094 2836.914062 1183.023438 C 2850.625 1196.878906 2860.625 1215.261719 2870.472656 1233.351562 C 2872.320312 1236.734375 2882.804688 1257.464844 2881.503906 1259.253906 C 2881.386719 1259.410156 2869.597656 1250.003906 2868.824219 1249.285156 C 2861.402344 1242.308594 2853.886719 1235.644531 2845.925781 1229.269531 C 2823.960938 1211.683594 2787.71875 1178.242188 2757.871094 1191.730469 C 2736.933594 1201.171875 2716.96875 1221.128906 2705.257812 1240.5625 C 2695.257812 1257.15625 2687.664062 1276.585938 2673.640625 1290.402344 C 2661.851562 1302.003906 2645.519531 1307.40625 2630.019531 1311.855469 C 2620.367188 1314.613281 2607.976562 1319.898438 2597.78125 1317.511719 C 2590.578125 1315.820312 2588.34375 1308.046875 2586.554688 1301.769531 C 2583.273438 1290.167969 2580.1875 1278.722656 2572.222656 1269.300781 C 2560.6875 1255.621094 2541.730469 1250.683594 2530.757812 1236.65625 C 2514.117188 1215.378906 2516.039062 1181.0625 2543.945312 1171.5 C 2583.058594 1158.113281 2633.089844 1179.019531 2662.6875 1141.945312 C 2668.125 1135.144531 2671.835938 1127.195312 2674.941406 1119.113281 C 2689.273438 1081.707031 2694.265625 1039.890625 2681.894531 1001.222656 C 2678.203125 989.679688 2672.667969 978.078125 2665.871094 967.894531 C 2722.039062 1003.824219 2696.246094 1108.640625 2772.164062 1123.855469 C 2810.636719 1131.511719 2841.398438 1106.308594 2879.542969 1088.605469 Z M 2178.808594 1031.183594 C 2173.179688 1047.972656 2172.363281 1066.453125 2184.152344 1081.007812 C 2201.300781 1102.1875 2227.945312 1101.023438 2252.746094 1098.089844 C 2261.777344 1097.019531 2270.691406 1095.152344 2279.703125 1093.910156 C 2280.246094 1093.832031 2287.199219 1092.628906 2287.316406 1093.753906 C 2287.492188 1095.796875 2271.449219 1100.554688 2269.894531 1101.140625 C 2251 1108.210938 2231.734375 1114.46875 2213.320312 1122.785156 C 2187.21875 1134.601562 2180.734375 1155.292969 2164.75 1176.648438 C 2154.746094 1190.019531 2139.753906 1198.355469 2130.199219 1212.015625 C 2114.875 1233.972656 2123.207031 1268.152344 2136.976562 1288.789062 C 2148.492188 1306.066406 2168.789062 1311.253906 2188.015625 1314.984375 C 2228.46875 1322.855469 2273.914062 1323.726562 2311.667969 1304.761719 C 2330.101562 1295.511719 2352.765625 1267.335938 2375.292969 1271.105469 C 2412.058594 1277.226562 2398.132812 1331.910156 2423.417969 1350.328125 C 2430.78125 1355.691406 2439.578125 1358.589844 2448.878906 1360.085938 C 2468.554688 1361.347656 2488.304688 1358.21875 2507.765625 1355.597656 C 2522.679688 1353.59375 2537.421875 1354.136719 2551.988281 1358.101562 C 2568.902344 1362.707031 2585.894531 1370.441406 2603.800781 1367.175781 C 2638.703125 1360.785156 2658.746094 1327.207031 2697.390625 1333.597656 C 2714.773438 1336.476562 2725.863281 1349.726562 2734.5625 1364.046875 C 2749.285156 1388.261719 2757.578125 1418.496094 2778.085938 1438.742188 C 2813.140625 1473.332031 2854.277344 1453.648438 2896.324219 1448.617188 C 2913.9375 1446.515625 2932.5625 1450.773438 2949.789062 1445.894531 C 2968.296875 1440.667969 2992.4375 1419.855469 3000.476562 1403.707031 C 3015.683594 1373.144531 3015.820312 1349.398438 3031.300781 1319.160156 C 3037.105469 1307.8125 3067.578125 1271.980469 3080.980469 1225.519531 C 3076.917969 1251.402344 3067.910156 1275.730469 3059.402344 1301.421875 C 3041.066406 1356.761719 3063.753906 1434.121094 2982.320312 1480.832031 C 2960.898438 1493.113281 2934.699219 1491.304688 2911.335938 1495.835938 C 2863.851562 1505.042969 2823.609375 1523.777344 2776.378906 1498.515625 C 2752.277344 1485.632812 2747.578125 1461.265625 2734.175781 1439.949219 C 2727.046875 1428.601562 2711.878906 1413.25 2697.003906 1416.902344 C 2669.871094 1423.546875 2651.597656 1446.246094 2625.457031 1456.058594 C 2599.003906 1466.007812 2567.796875 1459.828125 2545.480469 1482.640625 C 2528.699219 1499.816406 2515.902344 1521.210938 2503.199219 1542.410156 C 2500.386719 1547.113281 2497.570312 1551.816406 2494.714844 1556.460938 C 2478.4375 1582.925781 2460.980469 1607.488281 2434.410156 1621.109375 C 2419.882812 1628.550781 2404.445312 1628.046875 2388.984375 1623.792969 C 2393.121094 1622.46875 2397.179688 1620.953125 2401.125 1619.1875 C 2422.46875 1609.585938 2432.292969 1592.640625 2439.734375 1571.34375 C 2441.675781 1565.789062 2445.035156 1558.949219 2445.441406 1552.984375 C 2445.558594 1551.253906 2438.121094 1555.429688 2437.1875 1555.820312 C 2431.480469 1558.171875 2425.417969 1560.054688 2419.339844 1561.203125 C 2405.066406 1563.902344 2390.421875 1560.484375 2378.304688 1552.535156 C 2375.429688 1550.652344 2368.691406 1546.707031 2368.089844 1542.800781 C 2367.796875 1540.953125 2373.972656 1542.082031 2374.769531 1542.160156 C 2382.632812 1542.859375 2390.539062 1543.519531 2398.445312 1543.265625 C 2417.011719 1542.703125 2432.332031 1534.832031 2440.433594 1517.734375 C 2448.511719 1500.671875 2445.519531 1480.210938 2449.480469 1462.0625 C 2450.570312 1457.105469 2452.199219 1452.328125 2454.472656 1447.78125 C 2462.570312 1431.554688 2485.683594 1406.449219 2464.222656 1389.777344 C 2461.851562 1387.949219 2459.171875 1386.414062 2456.335938 1385.5 C 2422.621094 1374.542969 2390.324219 1402.660156 2356.53125 1398.054688 C 2352.980469 1397.570312 2349.445312 1396.925781 2345.929688 1396.148438 C 2354.609375 1390.960938 2360.496094 1379.90625 2356.863281 1369.527344 C 2349.929688 1349.6875 2323.285156 1343.335938 2305.203125 1340.421875 C 2260.726562 1333.289062 2208.117188 1343.277344 2167.644531 1319.628906 C 2130.199219 1297.75 2098.078125 1237.53125 2118.488281 1195.789062 C 2131.675781 1168.820312 2158.863281 1151.273438 2168.632812 1122.164062 C 2175.0625 1102.984375 2153.835938 1087.089844 2155.992188 1067.542969 C 2157.351562 1055.105469 2168.011719 1042.4375 2178.808594 1031.183594 Z M 2178.808594 1031.183594 " fill-opacity="1" fill-rule="evenodd"/><path fill="#ffffff" d="M 2889.816406 1157.414062 C 2884.785156 1148.707031 2885.757812 1121.601562 2899.0625 1112.546875 C 2912.363281 1103.46875 2938.796875 1101.585938 2951.089844 1115.285156 C 2963.382812 1128.984375 2958.664062 1140.410156 2942.3125 1149.96875 C 2925.960938 1159.511719 2900.867188 1176.535156 2889.816406 1157.414062 Z M 2281.800781 1483.882812 C 2270.4375 1478.695312 2264.863281 1461.128906 2281.859375 1444.4375 C 2298.851562 1427.746094 2315.824219 1422.945312 2320.777344 1434.3125 C 2325.710938 1445.679688 2309.496094 1451.023438 2303.492188 1462.820312 C 2297.472656 1474.613281 2291.238281 1488.199219 2281.800781 1483.882812 Z M 2549.792969 1049.160156 C 2537.070312 1034.3125 2543.34375 1021.722656 2562.511719 1008.292969 C 2581.679688 994.867188 2606.480469 986.511719 2612.675781 1005.339844 C 2618.871094 1024.171875 2607.707031 1038.140625 2591.9375 1044.242188 C 2576.164062 1050.324219 2558.53125 1059.359375 2549.792969 1049.160156 Z M 2549.792969 1049.160156 " fill-opacity="1" fill-rule="evenodd"/><path fill="#d0832c" d="M 2476.964844 1583.042969 C 2489.429688 1520.804688 2455.96875 1442.496094 2512.71875 1394.613281 C 2530.097656 1379.945312 2550.976562 1380.097656 2571.992188 1385.269531 C 2585.003906 1388.453125 2597.140625 1393.3125 2610.8125 1391.777344 C 2637.1875 1388.804688 2648.878906 1359.40625 2673.039062 1351.730469 C 2683.136719 1348.523438 2694.246094 1350.972656 2703.761719 1354.914062 C 2743.75 1371.511719 2750.316406 1414.355469 2754.917969 1452.421875 C 2756.101562 1462.238281 2757.460938 1471.992188 2759.890625 1481.589844 C 2760.335938 1483.339844 2760.800781 1485.050781 2761.328125 1486.738281 C 2749.324219 1473.46875 2744.179688 1455.863281 2734.175781 1439.949219 C 2727.046875 1428.601562 2711.878906 1413.25 2697.003906 1416.902344 C 2669.871094 1423.546875 2651.597656 1446.246094 2625.457031 1456.058594 C 2599.003906 1466.007812 2567.796875 1459.828125 2545.480469 1482.640625 C 2528.699219 1499.816406 2515.902344 1521.210938 2503.199219 1542.410156 C 2494.8125 1556.460938 2486.421875 1570.453125 2476.964844 1583.042969 Z M 2476.964844 1583.042969 " fill-opacity="1" fill-rule="evenodd"/><path fill="#aa611d" d="M 2496.578125 1553.449219 C 2490.324219 1563.707031 2483.953125 1573.753906 2476.980469 1583.023438 C 2489.449219 1520.785156 2455.988281 1442.476562 2512.738281 1394.59375 C 2530.117188 1379.925781 2550.996094 1380.078125 2572.011719 1385.25 C 2585.023438 1388.433594 2597.160156 1393.292969 2610.832031 1391.757812 C 2637.207031 1388.785156 2648.898438 1359.386719 2673.058594 1351.710938 C 2683.15625 1348.503906 2694.265625 1350.953125 2703.78125 1354.894531 C 2743.769531 1371.492188 2750.335938 1414.335938 2754.9375 1452.40625 C 2756.121094 1462.21875 2757.480469 1471.972656 2759.910156 1481.570312 C 2760.355469 1483.320312 2760.820312 1485.03125 2761.347656 1486.71875 C 2754.800781 1479.492188 2750.296875 1470.960938 2745.925781 1462.121094 C 2747.480469 1435.808594 2745.070312 1409.421875 2727.203125 1392.28125 C 2723.222656 1388.453125 2718.699219 1385.171875 2713.628906 1382.898438 C 2671.71875 1364.066406 2653.675781 1422.808594 2620.816406 1434.992188 C 2604.832031 1440.921875 2588.984375 1438.6875 2573.273438 1433.246094 C 2559.25 1428.40625 2543.828125 1421.023438 2528.855469 1426.289062 C 2513.300781 1431.769531 2505.433594 1448.460938 2501.628906 1463.402344 C 2494.113281 1492.859375 2498.09375 1523.40625 2496.578125 1553.449219 Z M 2496.578125 1553.449219 " fill-opacity="1" fill-rule="evenodd"/><path fill="#f8d581" d="M 2788.339844 1125.214844 C 2778.203125 1130.90625 2768.125 1136.523438 2758.703125 1142.507812 C 2742.683594 1152.710938 2715.804688 1173.636719 2695.429688 1172.21875 C 2689.429688 1171.792969 2690.984375 1165.730469 2692.730469 1161.863281 C 2697.0625 1152.242188 2703.742188 1143.65625 2708.851562 1134.425781 C 2717.046875 1119.636719 2722.96875 1104.191406 2725.222656 1088.082031 C 2734.679688 1105.53125 2748.488281 1119.054688 2772.222656 1123.796875 C 2777.738281 1124.902344 2783.097656 1125.332031 2788.339844 1125.214844 Z M 2117.089844 1254.007812 C 2144.394531 1286.632812 2178.695312 1309.523438 2222.835938 1313.3125 C 2245.988281 1315.292969 2268.980469 1313.410156 2291.472656 1307.640625 C 2301.125 1305.171875 2310.5625 1302.042969 2320.136719 1299.300781 C 2321.207031 1298.992188 2328.160156 1296.5625 2328.023438 1299.398438 C 2327.769531 1305.230469 2317.476562 1310.554688 2313.496094 1313.273438 C 2298.210938 1323.726562 2281.898438 1330.839844 2264.710938 1337.292969 C 2231.089844 1336.261719 2196.347656 1336.378906 2167.703125 1319.628906 C 2145.96875 1306.957031 2126.042969 1281.386719 2117.089844 1254.007812 Z M 2117.089844 1254.007812 " fill-opacity="1" fill-rule="evenodd"/><path fill="#d0832c" d="M 2788.339844 1125.214844 C 2778.203125 1130.90625 2768.125 1136.523438 2758.703125 1142.507812 C 2742.683594 1152.710938 2715.804688 1173.636719 2695.429688 1172.21875 C 2689.429688 1171.792969 2690.984375 1165.730469 2692.730469 1161.863281 C 2697.0625 1152.242188 2703.742188 1143.65625 2708.851562 1134.425781 C 2717.046875 1119.636719 2722.96875 1104.191406 2725.222656 1088.082031 C 2734.679688 1105.53125 2748.488281 1119.054688 2772.222656 1123.796875 C 2777.738281 1124.902344 2783.097656 1125.332031 2788.339844 1125.214844 Z M 2117.089844 1254.007812 C 2144.394531 1286.632812 2178.695312 1309.523438 2222.835938 1313.3125 C 2245.988281 1315.292969 2268.980469 1313.410156 2291.472656 1307.640625 C 2301.125 1305.171875 2310.5625 1302.042969 2320.136719 1299.300781 C 2321.207031 1298.992188 2328.160156 1296.5625 2328.023438 1299.398438 C 2327.769531 1305.230469 2317.476562 1310.554688 2313.496094 1313.273438 C 2298.210938 1323.726562 2281.898438 1330.839844 2264.710938 1337.292969 C 2231.089844 1336.261719 2196.347656 1336.378906 2167.703125 1319.628906 C 2145.96875 1306.957031 2126.042969 1281.386719 2117.089844 1254.007812 Z M 2117.089844 1254.007812 " fill-opacity="0.652" fill-rule="evenodd"/></svg>