<svg xmlns="http://www.w3.org/2000/svg" xmlns:xlink="http://www.w3.org/1999/xlink" width="6912" zoomAndPan="magnify" viewBox="0 0 5184 2592.000001" height="3456" preserveAspectRatio="xMidYMid meet" version="1.0"><path fill="#f4ddb0" d="M 2846.628906 1610.363281 C 2700.0625 1704.871094 2569 1674.4375 2507.90625 1599.578125 C 2465.4375 1547.578125 2430.722656 1637.675781 2272.703125 1634.289062 C 2205.367188 1632.820312 2155.457031 1601.582031 2126.046875 1559.296875 C 2112.230469 1539.421875 2102.917969 1517.097656 2098.460938 1494.332031 C 2098.507812 1494.285156 2098.460938 1494.238281 2098.460938 1494.238281 C 2090.039062 1451.328125 2098.773438 1406.726562 2126.757812 1373.441406 C 2139.460938 1358.335938 2141.6875 1336.769531 2130.726562 1320.328125 C 2090.753906 1260.261719 2092.445312 1189.632812 2127.695312 1146.5 C 2154.96875 1113.082031 2202.515625 1096.195312 2266.464844 1113.617188 C 2291.554688 1120.433594 2317.667969 1104.707031 2321.765625 1079.039062 C 2346.230469 926.914062 2480.855469 886.1875 2585.535156 924.507812 C 2673.144531 956.546875 2739.8125 1043.929688 2703.625 1167.625 C 2694 1200.464844 2724.214844 1230.585938 2757.367188 1222.121094 C 3002.105469 1159.46875 3094.394531 1450.707031 2846.628906 1610.363281 Z M 2846.628906 1610.363281 " fill-opacity="1" fill-rule="nonzero"/><path fill="#ecc785" d="M 2846.628906 1610.363281 C 2700.0625 1704.871094 2569 1674.4375 2507.90625 1599.578125 C 2491.148438 1579.082031 2475.644531 1580.640625 2453.269531 1589.863281 C 2418.914062 1604.078125 2368.425781 1636.339844 2272.703125 1634.289062 C 2205.367188 1632.820312 2155.457031 1601.582031 2126.046875 1559.296875 C 2235.894531 1638.925781 2394.40625 1631.839844 2495.070312 1530.554688 C 2501.578125 1524.007812 2511.917969 1523.695312 2518.914062 1529.753906 C 2648.546875 1642.308594 2850.683594 1563.664062 2874.613281 1418.578125 C 2888.425781 1334.496094 2830.007812 1272.113281 2743.824219 1264.582031 C 2713.921875 1262 2685.3125 1266.855469 2656.925781 1274.519531 C 2642.128906 1278.484375 2629.875 1262.890625 2637.136719 1249.433594 C 2732.902344 1072.355469 2698.320312 994.242188 2585.535156 924.507812 C 2673.144531 956.546875 2739.8125 1043.929688 2703.625 1167.625 C 2694 1200.464844 2724.214844 1230.585938 2757.367188 1222.121094 C 2771.316406 1218.554688 2784.773438 1216.148438 2797.699219 1214.8125 C 3011.511719 1192.265625 3080.269531 1459.796875 2846.628906 1610.363281 Z M 2846.628906 1610.363281 " fill-opacity="1" fill-rule="nonzero"/><path fill="#e2ad5e" d="M 2650.257812 1445.917969 C 2592.84375 1428.277344 2527.417969 1434.546875 2474.261719 1462.648438 C 2505.320312 1382.667969 2578.730469 1114.683594 2554.085938 1031.984375 C 2655.0625 1115.78125 2501.90625 1295.195312 2655.265625 1437.242188 C 2659.328125 1441.007812 2655.550781 1447.546875 2650.257812 1445.917969 Z M 2650.257812 1445.917969 " fill-opacity="1" fill-rule="nonzero"/><path fill="#ce6e04" d="M 2618.554688 1428.828125 C 2575.550781 1419.160156 2520.960938 1440.769531 2493.957031 1482.519531 C 2484.867188 1496.601562 2469.535156 1504.535156 2453.941406 1504.3125 C 2446.765625 1504.222656 2439.546875 1502.4375 2432.773438 1498.652344 C 2264.234375 1405.210938 2176.894531 1203.136719 2267.488281 1179.476562 C 2300.867188 1170.742188 2375.242188 1220.78125 2382.816406 1141.78125 C 2384.46875 1124.625 2369.003906 1034.4375 2452.871094 1007.613281 C 2526.355469 984.039062 2608.527344 1042.414062 2583.035156 1176.933594 C 2582.769531 1178.40625 2582.457031 1179.832031 2582.191406 1181.304688 C 2572.875 1228 2556.390625 1273.984375 2557.679688 1321.574219 C 2558.886719 1364.839844 2580.5 1411.539062 2618.554688 1428.828125 Z M 2618.554688 1428.828125 " fill-opacity="1" fill-rule="nonzero"/><path fill="#e2ad5e" d="M 2846.628906 1610.363281 C 2700.0625 1704.871094 2569 1674.4375 2507.90625 1599.578125 C 2491.148438 1579.082031 2475.644531 1580.640625 2453.269531 1589.863281 C 2490.347656 1566.203125 2502.871094 1552.390625 2517.128906 1568.832031 C 2622.921875 1690.789062 2850.503906 1646.855469 2910.484375 1445.894531 C 2949.34375 1315.828125 2878.621094 1221.316406 2797.699219 1214.8125 C 3011.511719 1192.265625 3080.269531 1459.796875 2846.628906 1610.363281 Z M 2846.628906 1610.363281 " fill-opacity="1" fill-rule="nonzero"/><path fill="#ecc785" d="M 2098.460938 1494.242188 C 2090.039062 1451.332031 2098.773438 1406.726562 2126.757812 1373.441406 C 2128.628906 1371.214844 2130.234375 1368.894531 2131.660156 1366.445312 C 2139.816406 1352.144531 2140.085938 1334.363281 2130.726562 1320.328125 C 2113.167969 1293.949219 2103.675781 1265.519531 2101.492188 1238.292969 C 2098.730469 1203.539062 2107.910156 1170.699219 2127.695312 1146.503906 C 2114.28125 1201.355469 2139.328125 1263.113281 2196.859375 1288.734375 C 2206.617188 1293.101562 2217.980469 1297.066406 2222.4375 1306.78125 C 2243.78125 1353.433594 2089.996094 1338.773438 2098.460938 1494.242188 Z M 2098.460938 1494.242188 " fill-opacity="1" fill-rule="nonzero"/><path fill="#e2ad5e" d="M 2168.558594 1340.378906 C 2155.191406 1347.285156 2142.800781 1356.152344 2131.660156 1366.445312 C 2139.816406 1352.140625 2140.085938 1334.363281 2130.726562 1320.328125 C 2113.167969 1293.945312 2103.675781 1265.519531 2101.492188 1238.292969 C 2106.261719 1256.472656 2112.546875 1274.117188 2122.75 1289.757812 C 2133.402344 1306.113281 2149.398438 1319.96875 2167.492188 1326.339844 C 2173.863281 1328.570312 2174.53125 1337.304688 2168.558594 1340.378906 Z M 2168.558594 1340.378906 " fill-opacity="1" fill-rule="nonzero"/><path fill="#b64502" d="M 2583.039062 1176.9375 C 2582.769531 1178.40625 2582.460938 1179.832031 2582.191406 1181.304688 C 2578.359375 1138.839844 2562.226562 1093.523438 2531.523438 1088.398438 C 2507.324219 1084.34375 2486.605469 1108.582031 2482.011719 1132.6875 C 2475.238281 1168.382812 2500.152344 1249.121094 2447.699219 1265.699219 C 2412.050781 1276.972656 2336.070312 1215.390625 2329.519531 1298.402344 C 2322.34375 1388.726562 2375.019531 1470.359375 2453.941406 1504.3125 C 2446.765625 1504.222656 2439.546875 1502.4375 2432.773438 1498.652344 C 2264.234375 1405.210938 2176.894531 1203.136719 2267.488281 1179.476562 C 2300.867188 1170.742188 2375.242188 1220.78125 2382.816406 1141.78125 C 2384.46875 1124.625 2369.003906 1034.4375 2452.871094 1007.613281 C 2526.355469 984.039062 2608.527344 1042.414062 2583.039062 1176.9375 Z M 2583.039062 1176.9375 " fill-opacity="1" fill-rule="nonzero"/><path fill="#faefd7" d="M 2137.363281 1449.578125 C 2122.125 1516.597656 2192.597656 1543.777344 2215.382812 1506.226562 C 2220.027344 1498.570312 2221.695312 1489.035156 2227.992188 1482.671875 C 2238.730469 1471.816406 2257.269531 1475.171875 2270.746094 1467.988281 C 2291.105469 1457.136719 2296.09375 1425.363281 2271.355469 1400.164062 C 2235.839844 1363.980469 2155.789062 1368.550781 2137.363281 1449.578125 Z M 2137.363281 1449.578125 " fill-opacity="1" fill-rule="nonzero"/><path fill="#faefd7" d="M 2146.699219 1174.539062 C 2139.921875 1206.828125 2173.683594 1221.28125 2190.023438 1205.710938 C 2197.625 1198.460938 2198.410156 1186.816406 2206.40625 1179.929688 C 2211.441406 1175.597656 2218.617188 1173.839844 2223.617188 1169.46875 C 2238.128906 1156.796875 2227.171875 1129.78125 2195.828125 1131.804688 C 2169.179688 1133.523438 2151.613281 1151.121094 2146.699219 1174.539062 Z M 2146.699219 1174.539062 " fill-opacity="1" fill-rule="nonzero"/><path fill="#faefd7" d="M 2798.042969 1369.574219 C 2807.179688 1361.710938 2808.367188 1347.253906 2803.347656 1336.292969 C 2780.101562 1285.5 2648.367188 1274.214844 2639.117188 1344.101562 C 2637.199219 1358.597656 2643.605469 1374.398438 2656.210938 1381.8125 C 2673.78125 1392.144531 2683.347656 1379.0625 2698.699219 1375.507812 C 2730.28125 1368.191406 2779.257812 1385.734375 2798.042969 1369.574219 Z M 2798.042969 1369.574219 " fill-opacity="1" fill-rule="nonzero"/></svg>